M48
;Layer_Color=9474304
;FILE_FORMAT=4:4
METRIC,LZ
;TYPE=PLATED
T1F00S00C0.7000
T2F00S00C0.7110
T3F00S00C0.7112
T4F00S00C0.8000
T5F00S00C0.8500
T6F00S00C1.0000
T7F00S00C1.1000
T8F00S00C1.5000
T9F00S00C1.7000
T10F00S00C3.0000
%
T01
X000893Y0007874
X001393
X0050419Y0011716
Y0013716
T02
X0064643Y0005461
X0068453Y0009779
X0076708Y0009652
X0074422Y0005969
X0072898Y0004572
X0073787Y0002159
X0086614Y0008001
X0085979Y0014986
X0086487Y0023241
X0086233Y0030988
X0085725Y0035179
X0077597Y0036957
X0070993Y0037211
X0069342Y003048
X0069596Y0022098
X0068834Y001524
X0076327Y0015113
X0077978Y0023749
X0078105Y0030353
X0057023Y0025273
X0054483Y00254
X0055118Y0021082
Y0018542
X005334
X0051689
X0050038
Y0021082
X0051689
X005334
X0052578Y00254
X0050927
X0032639Y0033782
X0031369
X003429Y0038735
Y0039878
Y0041148
T03
X0028067Y0002794
X002921Y0005207
X0026162Y0005334
X0025908Y0011938
X00279791Y00128449
X0033147Y0009906
X0035179Y0010033
X0035433Y0005588
X0036449Y0002794
X0039243Y0003683
X0040894Y0004826
X0039497Y0008128
X0043434Y0010414
X0046609Y0010668
X0037846Y0013589
X00597023Y00036909
X0046609Y0014859
X0035433Y0016764
X0035687Y0021209
Y0023749
X003302Y0020447
X0026162Y0021082
Y0023749
X0026543Y0018542
Y0015875
T04
X0080304Y0018923
X0085304
X0075405Y0038862
X0065405
X004445Y0032639
Y0027639
T05
X0059101Y0038862
X0046101
T06
X0002159Y0004064
X0004059Y0011564
X0022192Y0017272
Y0030272
X0017286Y0039243
X0012192Y0030272
Y0017272
X0002286Y0039243
T07
X0082904Y0003048
X0082804Y0005588
X0003937Y0019558
Y0027178
T08
X0061214Y001286
X0073814
Y001786
Y002286
Y002786
Y003286
X0061214
Y002786
Y002286
Y001786
T09
X0082804Y0025908
Y00323054
T10
X0020574Y0007493
X0068834Y0003937
X0083058Y0038862
X0022479Y0039116
M30
