G04*
G04 #@! TF.GenerationSoftware,Altium Limited,Altium Designer,23.4.1 (23)*
G04*
G04 Layer_Color=8421504*
%FSLAX44Y44*%
%MOMM*%
G71*
G04*
G04 #@! TF.SameCoordinates,A62261B1-4730-41BB-8F10-B985FF82E821*
G04*
G04*
G04 #@! TF.FilePolarity,Positive*
G04*
G01*
G75*
%ADD18R,0.7000X1.0000*%
%ADD19R,1.0000X0.7000*%
%ADD20R,1.8000X1.1500*%
%ADD21R,0.6000X1.2700*%
%ADD22R,1.6000X1.9000*%
%ADD23R,2.7000X2.5000*%
%ADD24R,1.8000X3.2000*%
%ADD25R,2.8500X1.2500*%
%ADD26R,6.5500X5.5500*%
%ADD27R,1.2200X0.9100*%
%ADD28R,1.1500X1.8000*%
%ADD29R,1.0000X0.6000*%
%ADD30R,0.6000X1.0000*%
%ADD31R,1.3000X1.0000*%
%ADD32R,2.0000X1.7000*%
D18*
X303530Y152400D02*
D03*
X288530D02*
D03*
X331350Y160020D02*
D03*
X316350D02*
D03*
X301230Y21590D02*
D03*
X316230D02*
D03*
D19*
X261620Y95130D02*
D03*
Y80130D02*
D03*
X378678Y73540D02*
D03*
Y58540D02*
D03*
X328930Y28180D02*
D03*
Y43180D02*
D03*
X466090Y119500D02*
D03*
Y134500D02*
D03*
D20*
X279400Y102660D02*
D03*
Y73660D02*
D03*
X332740Y222990D02*
D03*
Y251990D02*
D03*
X309880D02*
D03*
Y222990D02*
D03*
X285750D02*
D03*
Y251990D02*
D03*
X406400Y190710D02*
D03*
Y219710D02*
D03*
X381000Y190710D02*
D03*
Y219710D02*
D03*
X374650Y87100D02*
D03*
Y116100D02*
D03*
X568960Y52705D02*
D03*
Y23705D02*
D03*
X591820Y52781D02*
D03*
Y23781D02*
D03*
X779780Y32490D02*
D03*
Y61490D02*
D03*
D21*
X303530Y72560D02*
D03*
X316230D02*
D03*
X328930D02*
D03*
X341630D02*
D03*
Y125560D02*
D03*
X328930D02*
D03*
X316230D02*
D03*
X303530D02*
D03*
D22*
X285230Y185420D02*
D03*
X316230D02*
D03*
D23*
X321310Y315910D02*
D03*
Y275910D02*
D03*
X279400Y275590D02*
D03*
Y315590D02*
D03*
Y359410D02*
D03*
Y399410D02*
D03*
X321310Y359730D02*
D03*
Y399730D02*
D03*
X549910Y296230D02*
D03*
Y336230D02*
D03*
X556260Y140650D02*
D03*
Y100650D02*
D03*
D24*
X406270Y398780D02*
D03*
X358270D02*
D03*
D25*
X462030Y173990D02*
D03*
Y219710D02*
D03*
D26*
X526030Y196850D02*
D03*
D27*
X431800Y186960D02*
D03*
Y219710D02*
D03*
X617220Y20455D02*
D03*
Y53205D02*
D03*
X637540Y53255D02*
D03*
Y20505D02*
D03*
D28*
X405340Y148590D02*
D03*
X434340D02*
D03*
X405340Y123190D02*
D03*
X434340D02*
D03*
D29*
X342900Y43180D02*
D03*
Y28180D02*
D03*
D30*
X316230Y34290D02*
D03*
X301230D02*
D03*
D31*
X759460Y40960D02*
D03*
Y60960D02*
D03*
D32*
X536410Y50800D02*
D03*
X436410D02*
D03*
Y25400D02*
D03*
X536410D02*
D03*
M02*
